<?xml version="1.0" encoding="UTF-8"?>
<!DOCTYPE svg PUBLIC "-//W3C//DTD SVG 1.1//EN" "http://www.w3.org/Graphics/SVG/1.1/DTD/svg11.dtd">
<svg xmlns="http://www.w3.org/2000/svg" version="1.1" width="1920px" height="1920px" style="shape-rendering:geometricPrecision; text-rendering:geometricPrecision; image-rendering:optimizeQuality; fill-rule:evenodd; clip-rule:evenodd" xmlns:xlink="http://www.w3.org/1999/xlink">
<g><path style="opacity:0.991" fill="#000000" d="M 1098.5,241.5 C 1213.71,233.577 1305.54,275.577 1374,367.5C 1403.24,410.209 1419.57,457.542 1423,509.5C 1423.67,549.833 1423.67,590.167 1423,630.5C 1419.43,677.205 1405.1,720.205 1380,759.5C 1363.05,784.785 1342.89,807.285 1319.5,827C 1371.35,835.103 1422.68,845.77 1473.5,859C 1495.64,865.373 1517.64,872.373 1539.5,880C 1602.75,908.357 1644.92,955.524 1666,1021.5C 1669.53,1036.01 1672.2,1050.68 1674,1065.5C 1674.83,1120.17 1674.67,1174.84 1673.5,1229.5C 1596.06,1278.55 1513.39,1316.22 1425.5,1342.5C 1427.95,1249.29 1395.95,1170.46 1329.5,1106C 1292.47,1072.81 1249.8,1049.48 1201.5,1036C 1179.24,1030.06 1157.07,1023.89 1135,1017.5C 1134.33,1016.5 1134.33,1015.5 1135,1014.5C 1155.08,974.848 1167.75,932.848 1173,888.5C 1174.6,842.851 1174.93,797.184 1174,751.5C 1166.23,648.454 1123.73,562.954 1046.5,495C 993.722,450.453 933.056,422.286 864.5,410.5C 864.343,409.127 864.51,407.793 865,406.5C 907.221,323.283 973.721,270.45 1064.5,248C 1076,245.959 1087.33,243.793 1098.5,241.5 Z"/></g>
<g><path style="opacity:0.995" fill="#000000" d="M 777.5,483.5 C 881.168,479.105 966.001,516.438 1032,595.5C 1070.97,646.401 1091.3,704.068 1093,768.5C 1094.09,808.204 1093.42,847.87 1091,887.5C 1079.79,961.43 1045.63,1022.26 988.5,1070C 1041.36,1078.44 1093.69,1089.44 1145.5,1103C 1166.7,1109.07 1187.7,1115.73 1208.5,1123C 1280.23,1154.92 1324.07,1209.42 1340,1286.5C 1341.58,1296.11 1342.58,1305.77 1343,1315.5C 1343.83,1367.84 1343.67,1420.17 1342.5,1472.5C 1133.26,1602.9 905.926,1652.4 660.5,1621C 515.041,1600.49 380.541,1550.99 257,1472.5C 256.333,1416.17 256.333,1359.83 257,1303.5C 272.956,1212.21 324.122,1149.71 410.5,1116C 475.869,1095.06 542.535,1079.73 610.5,1070C 556.852,1025.23 523.352,968.394 510,899.5C 508.671,890.201 507.671,880.868 507,871.5C 506.06,826.814 506.393,782.147 508,737.5C 519.92,653.463 560.086,586.63 628.5,537C 673.574,506.364 723.241,488.531 777.5,483.5 Z"/></g>
</svg>
