<?xml version="1.0" encoding="UTF-8"?>
<!DOCTYPE svg PUBLIC "-//W3C//DTD SVG 1.1//EN" "http://www.w3.org/Graphics/SVG/1.1/DTD/svg11.dtd">
<svg xmlns="http://www.w3.org/2000/svg" version="1.1" width="1920px" height="1920px" style="shape-rendering:geometricPrecision; text-rendering:geometricPrecision; image-rendering:optimizeQuality; fill-rule:evenodd; clip-rule:evenodd" xmlns:xlink="http://www.w3.org/1999/xlink">
<g><path style="opacity:0.984" fill="#000000" d="M 565.5,154.5 C 816.167,154.333 1066.83,154.5 1317.5,155C 1402.64,170.144 1462.47,217.311 1497,296.5C 1503.69,313.69 1508.36,331.357 1511,349.5C 1511.67,756.5 1511.67,1163.5 1511,1570.5C 1496.02,1657.18 1447.85,1717.68 1366.5,1752C 1350.63,1756.97 1334.63,1761.31 1318.5,1765C 1067.5,1765.67 816.5,1765.67 565.5,1765C 479.784,1748.67 419.45,1700.67 384.5,1621C 384.833,1620.67 385.167,1620.33 385.5,1620C 379.479,1606.05 375.312,1591.55 373,1576.5C 369.578,1546.01 368.745,1515.51 370.5,1485C 352.833,1484.67 335.167,1484.33 317.5,1484C 260.336,1473.84 225.836,1440.34 214,1383.5C 209.713,1327.26 232.547,1286.42 282.5,1261C 292.653,1256.46 303.32,1253.46 314.5,1252C 333.176,1251.83 351.842,1251.33 370.5,1250.5C 369.167,1056.83 369.167,863.167 370.5,669.5C 351.842,668.667 333.176,668.167 314.5,668C 258.853,657.353 225.353,624.187 214,568.5C 209.856,514.893 231.023,474.727 277.5,448C 290.205,442.154 303.538,438.154 317.5,436C 335.167,435.667 352.833,435.333 370.5,435C 367.927,399.303 369.76,363.803 376,328.5C 398.818,245.003 451.651,189.503 534.5,162C 544.405,159.571 554.405,157.571 564.5,156C 565.056,155.617 565.389,155.117 565.5,154.5 Z"/></g>
<g><path style="opacity:1" fill="#fefefe" d="M 590.5,228.5 C 824.5,228.333 1058.5,228.5 1292.5,229C 1350.06,233.344 1392.9,260.511 1421,310.5C 1428.48,325.738 1433.48,341.738 1436,358.5C 1437.36,389.815 1437.86,421.149 1437.5,452.5C 1416.5,452.333 1395.5,452.5 1374.5,453C 1328.44,460.932 1298.28,487.099 1284,531.5C 1282.72,538.124 1281.72,544.79 1281,551.5C 1280.33,823.833 1280.33,1096.17 1281,1368.5C 1286.16,1413.99 1309.99,1445.16 1352.5,1462C 1359.69,1464.3 1367.02,1465.96 1374.5,1467C 1395.5,1467.5 1416.5,1467.67 1437.5,1467.5C 1437.67,1493.5 1437.5,1519.5 1437,1545.5C 1432.61,1607.55 1402.44,1652.05 1346.5,1679C 1330.76,1685.35 1314.42,1689.35 1297.5,1691C 1060.17,1691.67 822.833,1691.67 585.5,1691C 533.19,1685.78 493.357,1660.95 466,1616.5C 454.279,1595.67 447.612,1573.34 446,1549.5C 445.5,1527.5 445.333,1505.5 445.5,1483.5C 462.837,1483.67 480.17,1483.5 497.5,1483C 539.91,1477.56 571.077,1456.06 591,1418.5C 610.346,1373.26 605.012,1331.26 575,1292.5C 557.138,1272.32 534.972,1259.48 508.5,1254C 487.626,1252.91 466.793,1252.08 446,1251.5C 445.333,1057.17 445.333,862.833 446,668.5C 466.793,667.921 487.626,667.088 508.5,666C 563.7,652.134 594.866,616.967 602,560.5C 603.451,514.231 584.951,478.398 546.5,453C 531.283,444.261 514.95,438.928 497.5,437C 480.17,436.5 462.837,436.333 445.5,436.5C 445.333,414.497 445.5,392.497 446,370.5C 453.351,302.587 489.184,257.421 553.5,235C 565.821,231.935 578.154,229.768 590.5,228.5 Z"/></g>
<g><path style="opacity:0.998" fill="#fefefe" d="M 322.5,511.5 C 379.834,511.333 437.168,511.5 494.5,512C 518.872,519.046 529.705,535.213 527,560.5C 522.483,579.351 510.65,590.184 491.5,593C 449.695,593.159 408.029,593.325 366.5,593.5C 350.796,593.618 335.129,593.118 319.5,592C 300.631,585.446 290.298,572.113 288.5,552C 290.697,530.65 302.03,517.15 322.5,511.5 Z"/></g>
<g><path style="opacity:0.998" fill="#fcfcfc" d="M 1385.5,526.5 C 1402.74,526.175 1419.91,526.508 1437,527.5C 1436.51,554.735 1436.34,581.901 1436.5,609C 1409.59,609.828 1382.76,609.661 1356,608.5C 1355.33,589.5 1355.33,570.5 1356,551.5C 1360.69,536.928 1370.53,528.595 1385.5,526.5 Z"/></g>
<g><path style="opacity:0.99" fill="#000000" d="M 691.5,636.5 C 717.565,635.417 739.065,644.75 756,664.5C 782.008,702.499 806.008,741.833 828,782.5C 846.593,826.677 837.926,864.344 802,895.5C 801.333,896.5 801.333,897.5 802,898.5C 812.851,917.542 825.184,935.542 839,952.5C 871.264,990.431 907.098,1024.6 946.5,1055C 954.216,1060.86 962.549,1065.69 971.5,1069.5C 973.61,1068.95 975.61,1068.11 977.5,1067C 1011.4,1030.1 1050.07,1024.1 1093.5,1049C 1130.18,1071 1166.18,1094 1201.5,1118C 1232.81,1147.61 1237.31,1180.78 1215,1217.5C 1210.2,1223.3 1205.03,1228.8 1199.5,1234C 1180.21,1248.95 1161.21,1264.29 1142.5,1280C 1096.83,1310.86 1048.16,1316.52 996.5,1297C 953.288,1277.74 912.622,1254.41 874.5,1227C 768,1148.52 680.5,1053.02 612,940.5C 596.374,912.98 583.04,884.314 572,854.5C 555.36,802.372 564.36,755.372 599,713.5C 611.667,698.833 624.333,684.167 637,669.5C 651.352,651.939 669.518,640.939 691.5,636.5 Z"/></g>
<g><path style="opacity:0.998" fill="#fefefe" d="M 1355.5,683.5 C 1382.5,683.5 1409.5,683.5 1436.5,683.5C 1436.5,710.833 1436.5,738.167 1436.5,765.5C 1409.5,765.5 1382.5,765.5 1355.5,765.5C 1355.5,738.167 1355.5,710.833 1355.5,683.5 Z"/></g>
<g><path style="opacity:0.999" fill="#fdfdfd" d="M 697.5,713.5 C 699.91,713.921 701.743,715.254 703,717.5C 722.768,748.702 741.768,780.369 760,812.5C 761.556,816.558 762.723,820.725 763.5,825C 761.098,833.076 756.098,839.076 748.5,843C 733.19,857.636 725.857,875.636 726.5,897C 726.22,905.82 727.72,914.32 731,922.5C 744.186,949.661 760.52,974.661 780,997.5C 810.134,1032.63 842.634,1065.47 877.5,1096C 898.497,1113.17 921.164,1127.84 945.5,1140C 961.03,1145.63 976.697,1145.96 992.5,1141C 1000.52,1138.49 1008.18,1135.16 1015.5,1131C 1024.48,1124.35 1032.81,1117.02 1040.5,1109C 1043.17,1108.33 1045.83,1108.33 1048.5,1109C 1084.21,1129.51 1118.88,1151.51 1152.5,1175C 1152.24,1176.26 1151.57,1177.26 1150.5,1178C 1134.21,1190.62 1118.21,1203.62 1102.5,1217C 1081.48,1232.94 1058.15,1237.6 1032.5,1231C 1011.08,1222.62 990.413,1212.62 970.5,1201C 910.15,1164.02 854.983,1120.18 805,1069.5C 752.66,1016.52 707.994,957.851 671,893.5C 660.298,873.764 650.964,853.431 643,832.5C 634.942,807.497 638.609,784.497 654,763.5C 668.709,746.962 683.209,730.295 697.5,713.5 Z"/></g>
<g><path style="opacity:0.996" fill="#fefefe" d="M 1355.5,840.5 C 1382.83,840.5 1410.17,840.5 1437.5,840.5C 1436.34,867.549 1436.17,894.549 1437,921.5C 1409.91,922.495 1382.74,922.828 1355.5,922.5C 1355.5,895.167 1355.5,867.833 1355.5,840.5 Z"/></g>
<g><path style="opacity:0.996" fill="#fefefe" d="M 1355.5,997.5 C 1382.5,997.333 1409.5,997.5 1436.5,998C 1436.17,1025.05 1436.5,1052.22 1437.5,1079.5C 1410.17,1079.5 1382.83,1079.5 1355.5,1079.5C 1355.5,1052.17 1355.5,1024.83 1355.5,997.5 Z"/></g>
<g><path style="opacity:0.998" fill="#fefefe" d="M 1355.5,1154.5 C 1382.5,1154.5 1409.5,1154.5 1436.5,1154.5C 1436.5,1181.83 1436.5,1209.17 1436.5,1236.5C 1409.5,1236.5 1382.5,1236.5 1355.5,1236.5C 1355.5,1209.17 1355.5,1181.83 1355.5,1154.5 Z"/></g>
<g><path style="opacity:0.998" fill="#fcfcfc" d="M 1356.5,1310.5 C 1383.41,1310.17 1410.24,1310.51 1437,1311.5C 1436.51,1338.73 1436.34,1365.9 1436.5,1393C 1419.17,1393.67 1401.83,1393.67 1384.5,1393C 1369.71,1391.02 1360.21,1382.85 1356,1368.5C 1355.18,1349.09 1355.35,1329.76 1356.5,1310.5 Z"/></g>
<g><path style="opacity:0.998" fill="#fefefe" d="M 325.5,1326.5 C 382.866,1326.02 440.199,1326.52 497.5,1328C 513.53,1332.7 523.364,1343.2 527,1359.5C 529.705,1384.79 518.872,1400.95 494.5,1408C 435.789,1408.98 377.122,1408.65 318.5,1407C 293.167,1396.5 284.334,1378 292,1351.5C 299.086,1337.57 310.253,1329.23 325.5,1326.5 Z"/></g>
</svg>
