<?xml version="1.0" encoding="UTF-8"?>
<!DOCTYPE svg PUBLIC "-//W3C//DTD SVG 1.1//EN" "http://www.w3.org/Graphics/SVG/1.1/DTD/svg11.dtd">
<svg xmlns="http://www.w3.org/2000/svg" version="1.1" width="1920px" height="1920px" style="shape-rendering:geometricPrecision; text-rendering:geometricPrecision; image-rendering:optimizeQuality; fill-rule:evenodd; clip-rule:evenodd" xmlns:xlink="http://www.w3.org/1999/xlink">
<g><path style="opacity:0.993" fill="#000000" d="M 726.5,50.5 C 868.5,50.3333 1010.5,50.5 1152.5,51C 1202.49,63.1029 1238.99,92.2696 1262,138.5C 1269.92,157.565 1274.26,177.565 1275,198.5C 1275.67,231.833 1275.67,265.167 1275,298.5C 1273.5,347.474 1253.34,386.807 1214.5,416.5C 1259.99,416.346 1305.66,416.513 1351.5,417C 1413.31,423.472 1456.15,455.305 1480,512.5C 1482.51,518.892 1484.18,525.559 1485,532.5C 1485.42,533.672 1486.09,534.672 1487,535.5C 1487.67,930.5 1487.67,1325.5 1487,1720.5C 1471.98,1782.86 1433.48,1822.02 1371.5,1838C 1083.5,1838.67 795.5,1838.67 507.5,1838C 445.491,1821.99 406.991,1782.82 392,1720.5C 391.167,1325.5 391.333,930.5 392.5,535.5C 405.632,478.53 439.965,440.697 495.5,422C 506.011,419.415 516.678,417.748 527.5,417C 573.01,416.513 618.343,416.347 663.5,416.5C 625.443,386.543 605.609,347.209 604,298.5C 603.333,265.167 603.333,231.833 604,198.5C 607.089,139.483 634.256,95.3164 685.5,66C 699.05,60.0492 712.717,54.8825 726.5,50.5 Z"/></g>
<g><path style="opacity:1" fill="#5c5c5c" d="M 745.5,156.5 C 874.667,155.168 1004,155.168 1133.5,156.5C 1136.37,157.774 1139.37,158.607 1142.5,159C 1143.38,159.708 1144.05,160.542 1144.5,161.5C 1138.74,159.392 1132.74,157.892 1126.5,157C 999.5,156.5 872.5,156.333 745.5,156.5 Z"/></g>
<g><path style="opacity:1" fill="#fefefe" d="M 745.5,156.5 C 872.5,156.333 999.5,156.5 1126.5,157C 1132.74,157.892 1138.74,159.392 1144.5,161.5C 1152.1,165.769 1158.1,171.769 1162.5,179.5C 1164.41,185.214 1166.08,190.881 1167.5,196.5C 1167.5,196.833 1167.5,197.167 1167.5,197.5C 1167.79,233.515 1167.45,269.515 1166.5,305.5C 1166.5,306.167 1166.5,306.833 1166.5,307.5C 1164.33,311.997 1162.33,316.663 1160.5,321.5C 1154.96,327.529 1148.63,332.696 1141.5,337C 1138.62,337.546 1135.95,338.379 1133.5,339.5C 1005.51,340.488 877.513,340.821 749.5,340.5C 747.708,340.634 746.042,340.301 744.5,339.5C 741.075,337.435 737.408,335.769 733.5,334.5C 722.277,327.936 715.277,318.269 712.5,305.5C 711.546,269.515 711.213,233.515 711.5,197.5C 711.5,197.167 711.5,196.833 711.5,196.5C 713.296,191.002 714.963,185.335 716.5,179.5C 720.259,172.287 725.592,166.621 732.5,162.5C 736.542,160.823 740.542,159.156 744.5,157.5C 744.5,156.833 744.833,156.5 745.5,156.5 Z"/></g>
<g><path style="opacity:1" fill="#898989" d="M 744.5,157.5 C 740.542,159.156 736.542,160.823 732.5,162.5C 735.733,159.303 739.733,157.636 744.5,157.5 Z"/></g>
<g><path style="opacity:1" fill="#7c7c7c" d="M 1162.5,179.5 C 1166.13,184.475 1167.8,190.141 1167.5,196.5C 1166.08,190.881 1164.41,185.214 1162.5,179.5 Z"/></g>
<g><path style="opacity:1" fill="#838383" d="M 716.5,179.5 C 714.963,185.335 713.296,191.002 711.5,196.5C 711.336,193.813 711.503,191.146 712,188.5C 712.765,185.017 714.265,182.017 716.5,179.5 Z"/></g>
<g><path style="opacity:1" fill="#696969" d="M 711.5,197.5 C 711.213,233.515 711.546,269.515 712.5,305.5C 711.732,304.737 711.232,303.737 711,302.5C 710.169,267.331 710.336,232.331 711.5,197.5 Z"/></g>
<g><path style="opacity:1" fill="#6a6a6a" d="M 1167.5,197.5 C 1168.66,231.331 1168.83,265.331 1168,299.5C 1167.81,301.708 1167.31,303.708 1166.5,305.5C 1167.45,269.515 1167.79,233.515 1167.5,197.5 Z"/></g>
<g><path style="opacity:1" fill="#5f5f5f" d="M 1166.5,307.5 C 1165.83,312.877 1163.83,317.544 1160.5,321.5C 1162.33,316.663 1164.33,311.997 1166.5,307.5 Z"/></g>
<g><path style="opacity:1" fill="#7d7d7d" d="M 733.5,334.5 C 737.408,335.769 741.075,337.435 744.5,339.5C 740.153,339.111 736.486,337.444 733.5,334.5 Z"/></g>
<g><path style="opacity:1" fill="#353535" d="M 1133.5,339.5 C 1131.71,340.309 1129.71,340.809 1127.5,341C 1001.33,341.833 875.333,341.666 749.5,340.5C 877.513,340.821 1005.51,340.488 1133.5,339.5 Z"/></g>
<g><path style="opacity:1" fill="#909090" d="M 1352.5,525.5 C 1078.85,524.339 805.179,524.172 531.5,525C 525.078,526.084 519.078,528.251 513.5,531.5C 513.937,529.926 514.937,528.759 516.5,528C 520.068,526.382 523.735,525.049 527.5,524C 801.833,523.333 1076.17,523.333 1350.5,524C 1351.42,524.278 1352.08,524.778 1352.5,525.5 Z"/></g>
<g><path style="opacity:1" fill="#fefefe" d="M 1352.5,525.5 C 1363.44,527.63 1371.44,533.63 1376.5,543.5C 1377.72,547.801 1378.88,552.135 1380,556.5C 1380.5,610.166 1380.67,663.832 1380.5,717.5C 1086.83,717.5 793.167,717.5 499.5,717.5C 499.5,662.5 499.5,607.5 499.5,552.5C 499.678,547.153 501.678,542.82 505.5,539.5C 508.5,537.167 511.167,534.5 513.5,531.5C 519.078,528.251 525.078,526.084 531.5,525C 805.179,524.172 1078.85,524.339 1352.5,525.5 Z"/></g>
<g><path style="opacity:1" fill="#afafaf" d="M 513.5,531.5 C 511.167,534.5 508.5,537.167 505.5,539.5C 507.167,535.833 509.833,533.167 513.5,531.5 Z"/></g>
<g><path style="opacity:1" fill="#bcbcbc" d="M 499.5,552.5 C 499.5,607.5 499.5,662.5 499.5,717.5C 497.504,663.844 496.838,609.844 497.5,555.5C 497.427,553.973 498.094,552.973 499.5,552.5 Z"/></g>
<g><path style="opacity:1" fill="#8d8d8d" d="M 1376.5,543.5 C 1380.15,547.715 1381.81,552.715 1381.5,558.5C 1381.83,611.669 1381.5,664.669 1380.5,717.5C 1380.67,663.832 1380.5,610.166 1380,556.5C 1378.88,552.135 1377.72,547.801 1376.5,543.5 Z"/></g>
<g><path style="opacity:1" fill="#0b0b0b" d="M 497.5,555.5 C 496.838,609.844 497.504,663.844 499.5,717.5C 793.167,717.5 1086.83,717.5 1380.5,717.5C 1381.5,664.669 1381.83,611.669 1381.5,558.5C 1382.5,611.331 1382.83,664.331 1382.5,717.5C 1405.52,718.35 1418.52,730.184 1421.5,753C 1418.52,775.816 1405.52,787.65 1382.5,788.5C 1382.17,788.5 1381.83,788.5 1381.5,788.5C 1087.5,788.5 793.5,788.5 499.5,788.5C 498.833,788.5 498.167,788.5 497.5,788.5C 497.167,788.5 496.833,788.5 496.5,788.5C 470.374,790.467 455.374,778.634 451.5,753C 455.374,727.366 470.374,715.533 496.5,717.5C 496.168,663.331 496.501,609.331 497.5,555.5 Z"/></g>
<g><path style="opacity:1" fill="#0b0b0b" d="M 496.5,788.5 C 496.833,788.5 497.167,788.5 497.5,788.5C 496.834,1007.5 497.501,1226.17 499.5,1444.5C 793.5,1444.5 1087.5,1444.5 1381.5,1444.5C 1381.5,1225.83 1381.5,1007.17 1381.5,788.5C 1381.83,788.5 1382.17,788.5 1382.5,788.5C 1382.5,1007.17 1382.5,1225.83 1382.5,1444.5C 1407.08,1443.92 1421.08,1455.75 1424.5,1480C 1421.08,1504.25 1407.08,1516.08 1382.5,1515.5C 1382.83,1576.67 1382.5,1637.67 1381.5,1698.5C 1381.83,1637.33 1381.5,1576.33 1380.5,1515.5C 1086.5,1515.5 792.5,1515.5 498.5,1515.5C 497.501,1576 497.168,1636.66 497.5,1697.5C 496.501,1637 496.168,1576.34 496.5,1515.5C 471.894,1516.05 457.894,1504.22 454.5,1480C 457.894,1455.78 471.894,1443.95 496.5,1444.5C 496.5,1225.83 496.5,1007.17 496.5,788.5 Z"/></g>
<g><path style="opacity:1" fill="#fefefe" d="M 499.5,788.5 C 793.5,788.5 1087.5,788.5 1381.5,788.5C 1381.5,1007.17 1381.5,1225.83 1381.5,1444.5C 1087.5,1444.5 793.5,1444.5 499.5,1444.5C 499.5,1225.83 499.5,1007.17 499.5,788.5 Z"/></g>
<g><path style="opacity:1" fill="#000000" d="M 1093.5,1175.5 C 1101.5,1175.5 1109.5,1175.5 1117.5,1175.5C 1117.72,1177.34 1118.06,1179.18 1118.5,1181C 1114.28,1215.41 1113.45,1249.91 1116,1284.5C 1116.72,1289.25 1117.72,1293.92 1119,1298.5C 1121.62,1300.69 1124.62,1302.02 1128,1302.5C 1143.87,1300.29 1159.71,1297.62 1175.5,1294.5C 1176.44,1294.61 1177.28,1294.94 1178,1295.5C 1178.67,1297.83 1178.67,1300.17 1178,1302.5C 1172.69,1316.44 1169.02,1330.77 1167,1345.5C 1164.58,1346.35 1162.08,1347.02 1159.5,1347.5C 1127.96,1347.67 1096.46,1347.34 1065,1346.5C 1063.67,1310.49 1062,1274.49 1060,1238.5C 1057.25,1218.84 1054.92,1199.17 1053,1179.5C 1054.42,1178.54 1055.92,1177.71 1057.5,1177C 1069.67,1176.83 1081.67,1176.33 1093.5,1175.5 Z"/></g>
<g><path style="opacity:1" fill="#010101" d="M 1006.5,1173.5 C 1010.18,1173.33 1013.85,1173.5 1017.5,1174C 1019,1174.83 1020.17,1176 1021,1177.5C 1027.21,1190.81 1033.88,1203.81 1041,1216.5C 1042.41,1220.55 1041.08,1222.88 1037,1223.5C 1023.54,1221.09 1010.04,1218.93 996.5,1217C 987.482,1216.17 978.482,1216.33 969.5,1217.5C 967.027,1227.09 966.86,1236.75 969,1246.5C 971.141,1247.77 973.474,1248.43 976,1248.5C 993.996,1246.69 1012,1245.02 1030,1243.5C 1033.48,1243.98 1035.15,1245.98 1035,1249.5C 1035.67,1261.83 1035.67,1274.17 1035,1286.5C 1034.63,1287.42 1034.13,1288.25 1033.5,1289C 1022.35,1289.73 1011.35,1288.73 1000.5,1286C 992.833,1285.33 985.167,1285.33 977.5,1286C 975.223,1287.61 973.723,1289.78 973,1292.5C 972.228,1297.9 972.561,1303.24 974,1308.5C 975.686,1310.92 978.019,1311.92 981,1311.5C 995.538,1309.57 1010.04,1307.41 1024.5,1305C 1030.8,1303.96 1036.97,1302.46 1043,1300.5C 1045.3,1301.6 1046.47,1303.43 1046.5,1306C 1043.77,1319.43 1041.61,1332.93 1040,1346.5C 1038.83,1347.89 1037.33,1348.73 1035.5,1349C 997.833,1349.74 960.166,1350.08 922.5,1350C 920.059,1347.35 919.059,1344.18 919.5,1340.5C 920.311,1307.83 919.811,1275.16 918,1242.5C 915.831,1221.46 913.831,1200.46 912,1179.5C 912.481,1177.52 913.647,1176.19 915.5,1175.5C 917.968,1174.96 920.468,1174.62 923,1174.5C 951.018,1177.04 978.851,1176.7 1006.5,1173.5 Z"/></g>
<g><path style="opacity:1" fill="#010101" d="M 800.5,1166.5 C 816.557,1165.93 832.223,1168.1 847.5,1173C 857.405,1178.79 867.738,1183.79 878.5,1188C 883.795,1191.51 883.129,1194.18 876.5,1196C 872.781,1196.39 869.114,1197.06 865.5,1198C 826.065,1209.17 791.231,1228.34 761,1255.5C 758.036,1259.47 754.703,1263.13 751,1266.5C 748.119,1273.48 749.452,1279.48 755,1284.5C 766.423,1295.64 778.923,1305.47 792.5,1314C 802.884,1319.35 813.884,1322.02 825.5,1322C 828.699,1321 831.199,1319.16 833,1316.5C 832.624,1290.83 832.29,1265.17 832,1239.5C 832.5,1239 833,1238.5 833.5,1238C 853.833,1237.33 874.167,1237.33 894.5,1238C 896.949,1239.86 897.949,1242.36 897.5,1245.5C 893.85,1287.95 895.85,1330.12 903.5,1372C 903.815,1374.7 902.815,1376.7 900.5,1378C 861.833,1378.67 823.167,1378.67 784.5,1378C 757.978,1369.16 735.145,1354.66 716,1334.5C 708.424,1325.01 701.091,1315.35 694,1305.5C 691.27,1299.71 688.27,1294.04 685,1288.5C 683.091,1283.02 681.591,1277.52 680.5,1272C 681.199,1267.09 682.366,1262.25 684,1257.5C 687.946,1246.94 692.946,1236.94 699,1227.5C 703.748,1222.31 708.248,1216.98 712.5,1211.5C 720.258,1204.92 727.924,1198.08 735.5,1191C 742.233,1187.18 748.899,1183.18 755.5,1179C 763.167,1176 770.833,1173 778.5,1170C 786.026,1169.15 793.359,1167.98 800.5,1166.5 Z"/></g>
<g><path style="opacity:1" fill="#010101" d="M 852.5,967.5 C 866.541,967.134 880.541,967.634 894.5,969C 908.625,982.291 922.625,995.791 936.5,1009.5C 937.386,1010.32 937.719,1011.32 937.5,1012.5C 938.552,1012.35 939.552,1012.52 940.5,1013C 952.892,1025.06 965.559,1036.73 978.5,1048C 982.11,1049.94 985.443,1052.28 988.5,1055C 990.701,1055.82 992.534,1055.32 994,1053.5C 993.191,1030.48 991.691,1007.48 989.5,984.5C 989.421,981.045 989.921,977.712 991,974.5C 991.5,974 992,973.5 992.5,973C 1003.5,972.667 1014.5,972.333 1025.5,972C 1031.59,970.841 1037.42,969.675 1043,968.5C 1047.14,970.763 1048.64,974.096 1047.5,978.5C 1048.33,1007.79 1048.83,1037.12 1049,1066.5C 1050.03,1090.87 1051.37,1115.2 1053,1139.5C 1052.5,1140 1052,1140.5 1051.5,1141C 1035.17,1141.67 1018.83,1141.67 1002.5,1141C 996.316,1138.65 990.816,1135.15 986,1130.5C 973.512,1115.68 960.345,1101.51 946.5,1088C 933.936,1076.36 921.27,1064.86 908.5,1053.5C 906.055,1054.28 904.722,1055.94 904.5,1058.5C 906.571,1085.26 909.071,1111.93 912,1138.5C 911.097,1139.7 909.931,1140.53 908.5,1141C 890.202,1142.61 871.868,1143.44 853.5,1143.5C 854.469,1087.9 851.135,1032.57 843.5,977.5C 842.721,970.617 845.721,967.284 852.5,967.5 Z"/></g>
<g><path style="opacity:1" fill="#010101" d="M 1156.5,966.5 C 1165.19,966.491 1173.86,966.991 1182.5,968C 1195.88,972.859 1208.88,978.525 1221.5,985C 1222.77,987.139 1222.77,989.305 1221.5,991.5C 1183.98,999.673 1151.15,1016.67 1123,1042.5C 1119.98,1045.85 1117.82,1049.68 1116.5,1054C 1117.07,1055.87 1117.73,1057.7 1118.5,1059.5C 1131.08,1075.11 1146.74,1086.28 1165.5,1093C 1170.2,1093.91 1174.7,1093.41 1179,1091.5C 1179.99,1088.58 1180.65,1085.58 1181,1082.5C 1180.85,1064.17 1180.85,1045.84 1181,1027.5C 1182.44,1025.55 1184.27,1024.22 1186.5,1023.5C 1202.51,1024.07 1218.51,1024.9 1234.5,1026C 1235.94,1027.13 1236.61,1028.63 1236.5,1030.5C 1233.16,1057.77 1232.66,1085.11 1235,1112.5C 1235.8,1114.97 1237.46,1116.3 1240,1116.5C 1252.03,1113.78 1262.03,1107.78 1270,1098.5C 1274.1,1089.28 1274.43,1079.95 1271,1070.5C 1265.52,1059.69 1258.52,1050.02 1250,1041.5C 1247.87,1036.94 1246.04,1032.27 1244.5,1027.5C 1245.14,1022.8 1245.97,1018.14 1247,1013.5C 1255.53,997.3 1266.03,982.467 1278.5,969C 1280.64,967.596 1282.97,966.763 1285.5,966.5C 1289.87,967.517 1293.87,969.35 1297.5,972C 1307.51,974.67 1317.51,977.337 1327.5,980C 1331.83,981.667 1336.17,983.333 1340.5,985C 1344.5,987.333 1344.5,989.667 1340.5,992C 1333.5,995.167 1326.5,998.333 1319.5,1001.5C 1315.67,1004.83 1312.83,1008.83 1311,1013.5C 1310.33,1017.5 1310.33,1021.5 1311,1025.5C 1315.88,1040.59 1322.88,1054.59 1332,1067.5C 1338.11,1081.15 1337.27,1094.48 1329.5,1107.5C 1328.68,1108.39 1327.68,1108.72 1326.5,1108.5C 1326.31,1110.56 1325.81,1112.56 1325,1114.5C 1321.21,1118.05 1317.88,1122.05 1315,1126.5C 1309.58,1129.92 1304.74,1134.09 1300.5,1139C 1298.36,1140.4 1296.03,1141.24 1293.5,1141.5C 1281.1,1138.2 1269.1,1134.04 1257.5,1129C 1252.43,1128.14 1247.43,1126.98 1242.5,1125.5C 1241.45,1125.68 1240.45,1126.01 1239.5,1126.5C 1238.67,1130.12 1238.17,1133.79 1238,1137.5C 1237.5,1138.67 1236.67,1139.5 1235.5,1140C 1203.79,1140.5 1172.13,1140.5 1140.5,1140C 1128.47,1136.49 1117.81,1130.66 1108.5,1122.5C 1105.67,1121.25 1103,1119.75 1100.5,1118C 1082.74,1102.3 1069.58,1083.46 1061,1061.5C 1060.31,1058.53 1059.81,1055.53 1059.5,1052.5C 1060.82,1045.36 1062.66,1038.36 1065,1031.5C 1069.11,1027.21 1072.11,1022.21 1074,1016.5C 1082.19,1007.31 1090.69,998.477 1099.5,990C 1116.81,977.664 1135.81,969.831 1156.5,966.5 Z"/></g>
<g><path style="opacity:1" fill="#000000" d="M 819.5,965.5 C 822.808,964.974 824.974,966.307 826,969.5C 826.333,1001.5 826.667,1033.5 827,1065.5C 828.184,1088.54 830.684,1111.37 834.5,1134C 834.353,1138.55 832.02,1140.88 827.5,1141C 812.144,1141.45 796.811,1142.28 781.5,1143.5C 778.483,1143.23 775.483,1142.9 772.5,1142.5C 772.862,1103.98 772.362,1065.31 771,1026.5C 768.697,1008.16 766.697,989.824 765,971.5C 765.833,969.333 767.333,967.833 769.5,967C 777.01,966.438 784.51,966.605 792,967.5C 801.337,967.035 810.504,966.369 819.5,965.5 Z"/></g>
<g><path style="opacity:1" fill="#010101" d="M 669.5,958.5 C 676.519,959.448 683.519,960.614 690.5,962C 709.096,969.07 728.096,975.07 747.5,980C 749.886,982.707 750.052,985.54 748,988.5C 724.421,1012.41 703.421,1038.41 685,1066.5C 682.968,1071.29 683.301,1075.96 686,1080.5C 709.489,1108.66 735.156,1134.99 763,1159.5C 763.667,1160.83 763.667,1162.17 763,1163.5C 756.054,1169.1 748.221,1172.94 739.5,1175C 725.385,1182.74 710.718,1188.74 695.5,1193C 688.732,1184.57 683.232,1175.41 679,1165.5C 677.488,1164.74 676.154,1163.74 675,1162.5C 661.597,1143.76 647.43,1125.59 632.5,1108C 630.866,1107.51 629.199,1107.34 627.5,1107.5C 627.483,1132.03 628.816,1156.53 631.5,1181C 631.584,1184.62 631.084,1188.12 630,1191.5C 624.757,1192.49 619.424,1193.16 614,1193.5C 591.856,1193.46 569.689,1193.3 547.5,1193C 544.019,1189.25 542.686,1184.75 543.5,1179.5C 544.508,1135.96 543.675,1092.29 541,1048.5C 537.83,1020.48 534.83,992.478 532,964.5C 533.008,962.741 534.508,961.574 536.5,961C 559.02,960.807 581.52,960.307 604,959.5C 609.001,959.652 612.335,961.985 614,966.5C 614.145,990.853 614.811,1015.19 616,1039.5C 616.561,1040.02 617.228,1040.36 618,1040.5C 625.847,1034.49 631.513,1026.82 635,1017.5C 638.385,1013.78 641.385,1009.78 644,1005.5C 649.066,995.863 654.232,986.363 659.5,977C 661.751,972.584 663.417,967.917 664.5,963C 666.043,961.287 667.709,959.787 669.5,958.5 Z"/></g>
<g><path style="opacity:1" fill="#020202" d="M 1287.5,910.5 C 1290.27,910.22 1292.77,910.887 1295,912.5C 1295.74,918.558 1295.41,924.558 1294,930.5C 1281.5,960.834 1259,978.334 1226.5,983C 1225.13,981.758 1224.13,980.258 1223.5,978.5C 1226.08,973.008 1228.91,967.675 1232,962.5C 1235.64,947.724 1237.64,932.724 1238,917.5C 1238.9,916.299 1240.07,915.465 1241.5,915C 1257.08,914.475 1272.41,912.975 1287.5,910.5 Z"/></g>
<g><path style="opacity:1" fill="#bebebe" d="M 497.5,788.5 C 498.167,788.5 498.833,788.5 499.5,788.5C 499.5,1007.17 499.5,1225.83 499.5,1444.5C 497.501,1226.17 496.834,1007.5 497.5,788.5 Z"/></g>
<g><path style="opacity:1" fill="#818181" d="M 498.5,1515.5 C 498.192,1578.51 498.526,1641.51 499.5,1704.5C 497.837,1702.56 497.171,1700.23 497.5,1697.5C 497.168,1636.66 497.501,1576 498.5,1515.5 Z"/></g>
<g><path style="opacity:1" fill="#fefefe" d="M 498.5,1515.5 C 792.5,1515.5 1086.5,1515.5 1380.5,1515.5C 1380.81,1578.51 1380.47,1641.51 1379.5,1704.5C 1379.5,1705.17 1379.5,1705.83 1379.5,1706.5C 1377.76,1708.39 1376.76,1710.73 1376.5,1713.5C 1375.4,1714.6 1374.73,1715.94 1374.5,1717.5C 1371.17,1720.17 1368.17,1723.17 1365.5,1726.5C 1361.53,1729 1357.2,1730.83 1352.5,1732C 1076.1,1732.83 799.764,1732.67 523.5,1731.5C 521.967,1729.75 519.967,1728.75 517.5,1728.5C 507.631,1723.44 501.631,1715.44 499.5,1704.5C 498.526,1641.51 498.192,1578.51 498.5,1515.5 Z"/></g>
<g><path style="opacity:1" fill="#8d8d8d" d="M 1380.5,1515.5 C 1381.5,1576.33 1381.83,1637.33 1381.5,1698.5C 1381.74,1700.9 1381.07,1702.9 1379.5,1704.5C 1380.47,1641.51 1380.81,1578.51 1380.5,1515.5 Z"/></g>
<g><path style="opacity:1" fill="#9d9d9d" d="M 1379.5,1706.5 C 1379.24,1709.27 1378.24,1711.61 1376.5,1713.5C 1376.76,1710.73 1377.76,1708.39 1379.5,1706.5 Z"/></g>
<g><path style="opacity:1" fill="#505050" d="M 1374.5,1717.5 C 1372.5,1721.5 1369.5,1724.5 1365.5,1726.5C 1368.17,1723.17 1371.17,1720.17 1374.5,1717.5 Z"/></g>
<g><path style="opacity:1" fill="#6c6c6c" d="M 517.5,1728.5 C 519.967,1728.75 521.967,1729.75 523.5,1731.5C 521.033,1731.25 519.033,1730.25 517.5,1728.5 Z"/></g>
</svg>
